# xmcd CD database file
#
# Track frame offsets:
#	150
#	52014
#	90046
#	127771
#	154563
#
# Disc length: 2431 seconds
#
# Revision: 0
# Processed by: cddbd v1.5.2PL0 Copyright (c) Steve Scherf et al.
# Submitted via: CDex 1.70beta2
#
DISCID=2a097d05
DTITLE=Isao Suzuki Trio - Black Orpheus
DYEAR=1976
DGENRE=Jazz
TTITLE0=Manha de Carnival
TTITLE1=Angel Eyes
TTITLE2=Who can I  turn to
TTITLE3=In a sentimental mood
TTITLE4=Blues
EXTD=YEAR: 1976
EXTT0=
EXTT1=
EXTT2=
EXTT3=
EXTT4=
PLAYORDER=
